<svg data-v-0dd9719b="" version="1.0" xmlns="http://www.w3.org/2000/svg" xmlns:xlink="http://www.w3.org/1999/xlink" width="100%" height="100%" viewBox="0 -6.156280485392074e-10 169.1999969482422 169.21524047851562" preserveAspectRatio="xMidYMid meet" color-interpolation-filters="sRGB" style="margin: auto;"> <rect data-v-0dd9719b="" x="0" y="0" width="100%" height="100%" fill="#ffffff" fill-opacity="1" class="background" style="display: none;"></rect> <!----> <g data-v-0dd9719b="" class="imagesvg isNoFont"><g mask="url(#ad1b4ab2-684b-47e5-94c3-53abdf0cf49f)"><rect fill="#333" fill-opacity="0" stroke-width="2" x="0" y="0" width="169.20000000000005" height="169.2152293706434" class="image-rect"></rect> <svg x="0" y="0" width="169.20000000000005" height="169.2152293706434" filtersec="colorsb3682613196" class="image-svg-svg primary" style="overflow: visible;"><svg viewBox="0.0023281648755073547 0.044220395386219025 1023.8617553710938 1023.9557495117188" xmlns="http://www.w3.org/2000/svg" p-id="9810"><path d="M512.371862 1023.943012q-4.559077 0-9.186539-0.091182a510.103686 510.103686 0 0 1-192.620987-41.407813l-58.834884-25.211694 150.449528-165.55147 67.474334 61.330978L408.869425 919.825099c86.189344 22.02034 176.800992 16.09354 260.881763-17.894376 215.040247-86.884603 319.260739-332.550447 232.341942-547.590694a419.754185 419.754185 0 0 0-73.686076-119.846726L896.952771 174.41607a512.121078 512.121078 0 0 1-384.580909 849.58393zM129.101688 851.701097A511.824738 511.824738 0 0 1 710.304174 40.094275l66.106611 27.776174-173.244911 156.490306-61.114423-67.668095 61.365172-55.426974A420.893954 420.893954 0 0 0 197.32827 791.190752z" fill="#4d4d4d" p-id="9811"></path><path d="M241.779267 675.230638l136.624129-330.054353h80.661463L595.631999 675.230638h-82.143163l-32.164285-76.204966H356.132306l-32.164285 76.204966z m177.199911-250.384489l-47.00408 115.299048h94.019557zM631.261183 675.230638V345.176285h70.266769V675.230638z" fill="#4d4d4d" p-id="9812"></path></svg><rect v-gra="id" width="181.19970703125" height="181.21524047851562" transform="translate(-6, -6)" style="pointer-events:none;" fill="url(#FVOGXRSPtV0Ym3CZHE9d1)"></rect></svg> <!----></g></g><defs v-gra="od"></defs><defs v-gra="id"><filter id="3f199c16-a8ba-4623-81ca-1faf22e5ce0b" filterUnits="userSpaceOnUse"><feColorMatrix type="matrix" values="0 0 0 0 0.99609375  0 0 0 0 0.99609375  0 0 0 0 0.99609375  0 0 0 1 0"></feColorMatrix></filter><linearGradient x1="0" y1="1" x2="1" y2="0" id="FVOGXRSPtV0Ym3CZHE9d1"><stop offset="0%" stop-color="#7acbfe"></stop><stop offset="100%" stop-color="#4078fc"></stop></linearGradient><filter id="42443b3f1de60f6b6fd3b6a9844b4764" filterUnits="objectBoundingBox"><feColorMatrix type="matrix" values="0 0 0 0 0.99609375  0 0 0 0 0.99609375  0 0 0 0 0.99609375  0 0 0 1 0"></feColorMatrix></filter></defs><mask v-gra="im" id="ad1b4ab2-684b-47e5-94c3-53abdf0cf49f"><svg x="0" y="0" width="169.20000000000005" height="169.2152293706434" filtersec="colorsb3682613196" class="image-svg-svg primary" style="overflow: visible;" filter="url(#3f199c16-a8ba-4623-81ca-1faf22e5ce0b)"><svg viewBox="0.0023281648755073547 0.044220395386219025 1023.8617553710938 1023.9557495117188" xmlns="http://www.w3.org/2000/svg" p-id="9810"><path d="M512.371862 1023.943012q-4.559077 0-9.186539-0.091182a510.103686 510.103686 0 0 1-192.620987-41.407813l-58.834884-25.211694 150.449528-165.55147 67.474334 61.330978L408.869425 919.825099c86.189344 22.02034 176.800992 16.09354 260.881763-17.894376 215.040247-86.884603 319.260739-332.550447 232.341942-547.590694a419.754185 419.754185 0 0 0-73.686076-119.846726L896.952771 174.41607a512.121078 512.121078 0 0 1-384.580909 849.58393zM129.101688 851.701097A511.824738 511.824738 0 0 1 710.304174 40.094275l66.106611 27.776174-173.244911 156.490306-61.114423-67.668095 61.365172-55.426974A420.893954 420.893954 0 0 0 197.32827 791.190752z" fill="#4d4d4d" p-id="9811"></path><path d="M241.779267 675.230638l136.624129-330.054353h80.661463L595.631999 675.230638h-82.143163l-32.164285-76.204966H356.132306l-32.164285 76.204966z m177.199911-250.384489l-47.00408 115.299048h94.019557zM631.261183 675.230638V345.176285h70.266769V675.230638z" fill="#4d4d4d" p-id="9812"></path></svg></svg></mask></svg>