<svg t="1724032252446" class="icon" viewBox="0 0 1024 1024" version="1.1" xmlns="http://www.w3.org/2000/svg" p-id="22391" width="200" height="200"><path d="M852.007497 544.065829c0 56.030354-3.16416 65.594514-13.456823 96.877714-41.474926 101.576411-124.90752 174.514469-223.205668 195.127588-71.681463 14.436937-136.9088 5.368686-199.211886-27.892297-68.820114-34.804297-123.868891-98.489783-147.502811-170.010331l-0.729966-2.466377c-9.986926-33.815406-12.972617-44.061257-12.972617-95.218835 0-74.482834 10.722743-111.940754 48.054857-166.985142 29.720869-46.896274 66.747246-78.985509 120.34048-104.287086 41.414949-22.399269 79.048411-32.089234 128.136046-32.089234 8.342674 0 16.992549 0.310126 26.129554 0.806034 50.484663 3.701029 77.347109 11.539017 120.159086 34.799908 65.165897 34.745783 116.444891 96.825051 140.684434 170.811978 13.575314 34.311314 13.575314 43.075291 13.575314 100.52608z m146.347154 391.230902l-4.324205-2.162102c-2.309851-1.230263-14.795337-10.550126-78.805577-80.46592l-69.4272-70.345875 20.829622-30.23872c46.589074-68.991269 64.924526-137.672411 61.330286-229.678811-3.654217-100.834743-35.935086-175.068891-108.04224-248.257097-48.416183-48.996937-92.571063-77.380754-149.32992-95.278812-34.715063-10.614491-46.34624-14.191177-113.58208-14.191177-66.991543 0-79.048411 0-115.166354 14.621257-55.114606 17.467977-99.270949 45.790354-147.685669 94.848732-48.297691 48.93696-76.30848 93.676983-93.608228 149.707337l-0.607086 2.036297c-10.35264 35.050057-13.824 46.836297-13.824 114.591451 0 67.88096 0 80.161646 14.431086 116.632138 17.235383 55.965989 45.310537 100.77184 93.608228 149.762925 51.154651 51.837806 83.436983 73.066789 144.032915 94.787292 43.543406 14.687086 47.807634 14.687086 118.759131 14.687085 66.80576 0 75.395657 0 118.514834-14.627108 25.700937-7.40352 61.508754-25.545874 86.785463-43.875474l36.84352-24.865646 65.897326 66.644846c66.868663 67.755154 76.125623 76.270446 81.486994 77.259337 3.633737 1.34144 7.460571 2.091886 11.32544 2.22208 7.129966 0 13.581166-3.516709 24.546743-11.910583 7.85408-8.083749 16.079726-16.477623 16.079726-26.841966l-0.064366-5.001508v-0.059978zM96.339383 819.040549v-610.669715c0-58.502583 46.896274-106.1376 104.750811-106.1376h567.303315c54.808869 0 104.750811 28.50816 104.750811 59.731383v104.532846h75.884251V162.026057c0-76.579109-77.83424-136.620617-177.22368-136.620617H201.213074C103.419611 25.471269 24.147383 105.764571 24.049371 204.854126v614.120594c0.098011 99.074926 79.326354 179.375543 177.105189 179.511589H367.7184V925.052343H201.090194c-56.818834 0-104.750811-48.562469-104.750811-106.1376v0.125806z m0 0" p-id="22392"></path></svg>
