<svg t="1724035120018" class="icon" viewBox="0 0 1034 1024" version="1.1" xmlns="http://www.w3.org/2000/svg" p-id="41048" width="200" height="200"><path d="M387.392373 946.724257H116.62214c-21.462611 0-38.870599-17.304553-38.870599-38.643044V640.827746c0-21.33849-17.407988-38.6327-38.880942-38.6327C17.407988 602.195046 0 619.489256 0 640.827746v267.253467C0 972.107027 52.21362 1024 116.62214 1024h270.770233c21.472955 0 38.870599-17.29421 38.870598-38.643043 0-21.33849-17.397644-38.6327-38.870598-38.6327z m607.748742-344.539555c-21.472955 0-38.870599 17.304553-38.870599 38.643044v267.253467c0 21.33849-17.407988 38.643043-38.880942 38.643044H646.95033a38.922316 38.922316 0 0 0-33.667855 19.321521 38.436175 38.436175 0 0 0 0 38.6327A38.922316 38.922316 0 0 0 646.95033 1024h270.770233C982.129083 1024 1034.342703 972.107027 1034.342703 908.081213V640.827746c0-10.302053-4.137371-20.169683-11.501891-27.430769a38.99472 38.99472 0 0 0-27.699697-11.201931zM38.870599 421.805678c21.472955 0 38.880942-17.29421 38.880942-38.6327V115.919511c0-21.33849 17.407988-38.643043 38.870599-38.643044h270.770233c21.472955 0 38.870599-17.29421 38.870598-38.6327C426.262971 17.305277 408.87567 0.000724 387.392373 0.000724H116.62214C52.21362 0.000724 0 51.904041 0 115.919511v267.253467c0 21.33849 17.407988 38.6327 38.870599 38.6327zM917.389574 0.000724a116.98416 116.98416 0 0 1 82.675012 33.83335A115.56711 115.56711 0 0 1 1034.342703 115.919511v267.253467c0 21.33849-17.407988 38.6327-38.870599 38.6327-21.472955 0-38.880942-17.29421-38.880942-38.6327V115.919511c0-21.33849-17.407988-38.643043-38.870599-38.643044H646.95033c-21.472955 0-38.870599-17.29421-38.870598-38.6327C608.079732 17.305277 625.467032 0.000724 646.95033 0.000724h270.439244zM380.700175 527.877523c0 31.650887-0.506828 53.961659-1.520484 66.921972-1.003312 12.960314-3.527109 23.820912-7.571388 32.581796-7.405894 16.156433-19.10431 27.854849-35.105591 35.095247-15.990938 7.240399-35.933066 10.860598-59.847069 10.860599-23.893316 0-43.856131-3.620199-59.847069-10.860599-15.990938-7.240399-27.865192-18.938815-35.602076-35.105591-3.702947-7.736883-6.143996-19.10431-7.323146-34.091935-1.179151-14.977282-1.768726-36.781227-1.768726-65.401489v-59.091999c0-31.650887 0.506828-53.951315 1.51014-66.921973 1.013656-12.960314 3.537452-23.820912 7.581732-32.571452 7.736883-15.825443 19.362895-27.099779 34.847006-33.83335 15.48411-6.733571 35.684823-10.105528 60.612482-10.105528 24.906972 0 45.024938 3.278866 60.343553 9.846943 15.318615 6.568076 26.851537 17.935502 34.598764 34.091935 3.702947 8.078217 6.143996 19.611138 7.323146 34.598764 1.179151 14.977282 1.758383 36.615732 1.758383 64.894661v59.091999z m-90.401552 58.58517V414.254977v-8.078217c0-10.777851-0.765414-18.514734-2.275554-23.24168-1.520484-4.706259-5.306178-7.064561-11.367426-7.064561s-9.92969 2.606544-11.615669 7.829974c-1.685979 5.213087-2.523796 15.401363-2.523796 30.554484v178.279308c0 9.102216 0.837818 16.166776 2.523796 21.204025 1.685979 5.068279 5.388925 7.581732 11.108841 7.581732 9.433205 0 14.149808-11.615669 14.149808-34.847005z m337.692206-39.894598v16.663261c0 18.856067-1.344646 33.667855-4.033937 44.445706-9.433205 44.104373-42.097748 66.156559-97.983284 66.156559-20.200713 0-36.367489-1.344646-48.489986-4.033936-12.122496-2.689291-22.890004-8.750539-32.323209-18.183745-11.450174-11.108841-18.597482-23.90366-21.462612-38.374114-2.865129-14.480798-4.292522-36.0365-4.292522-64.646419v-125.776073c0-34.340178 8.998782-59.505736 27.017032-75.496674 18.01825-15.990938 44.197464-23.996751 78.537641-23.99675 20.542046 0 36.863974 1.779069 48.98647 5.306178 12.122496 3.537452 22.734853 10.446861 31.826725 20.707541 9.081529 10.271023 15.308272 23.820912 18.68023 40.660011 2.358301 12.122496 3.537452 29.78907 3.537452 53.030751v18.183744h-85.850445v-45.459361-8.585045c0-10.095185-0.175838-15.990938-0.517171-17.676917-1.675635-8.41955-6.557733-12.618981-14.646293-12.618981-11.43983 0-17.170089 7.240399-17.170089 21.721197v195.449397c0 17.842412 5.55442 26.768789 16.663261 26.768789 7.074904 0 11.450174-2.865129 13.136153-8.585044 1.685979-5.730259 2.523796-17.345927 2.523796-34.857349v-43.938878h85.850444v13.136152zM866.199953 672.323481h-83.843819V546.568095c0-12.46383-1.685979-20.707541-5.057936-24.751821-3.361614-4.033937-10.767508-6.061248-22.217681-6.061248V672.323481h-90.401553V324.846393h64.129248c53.206589 0 87.050282 3.537452 101.520736 10.612356 23.90366 11.781163 35.860662 39.71876 35.860662 83.833477 0 26.272305-2.689291 43.773383-8.078217 52.523922-6.402581 10.446861-20.200713 16.839099-41.415082 19.197401 21.545359 5.719915 35.519328 14.30496 41.92191 25.755133 5.047592 9.091872 7.571389 26.261961 7.571389 51.510266V672.323481z m-83.843819-241.922415v-19.187057c0-9.102216-1.179151-15.494454-3.537452-19.197401-3.371957-5.047592-9.92969-7.571389-19.693885-7.571388H755.070173v76.768915c11.791507 0 19.280148-1.934221 22.476267-5.813006 3.196119-3.868442 4.79935-12.205244 4.79935-25.000063z" fill="#FFFFFF" p-id="41049"></path></svg>
