<svg data-v-0dd9719b="" version="1.0" xmlns="http://www.w3.org/2000/svg" xmlns:xlink="http://www.w3.org/1999/xlink" width="100%" height="100%" viewBox="0 0 139.1999969482422 139.1999969482422" preserveAspectRatio="xMidYMid meet" color-interpolation-filters="sRGB" style="margin: auto;"> <rect data-v-0dd9719b="" x="0" y="0" width="100%" height="100%" fill="#ffffff" fill-opacity="1" class="background" style="display: none;"></rect> <!----> <g data-v-0dd9719b="" class="imagesvg isNoFont"><g mask="url(#4d6ac6f6-09ef-4e9f-9e24-bff1492a8a5d)"><rect fill="#000000" fill-opacity="0" stroke-width="2" x="0" y="0" width="139.20000000000002" height="139.20000000000002" class="image-rect"></rect> <svg x="0" y="0" width="139.20000000000002" height="139.20000000000002" filtersec="colorsf8768964387" class="image-svg-svg primary" style="overflow: visible;"><svg viewBox="0 0 1024 1024" xmlns="http://www.w3.org/2000/svg" p-id="17608"><path d="M1024 512A512 512 0 1 1 0 512a512 512 0 0 1 1024 0z m-128 0q0-73.216-26.989714-141.385143-29.257143-73.874286-85.504-130.194286-56.246857-56.173714-130.194286-85.430857Q585.289143 128 512 128q-73.216 0-141.385143 26.989714-73.874286 29.257143-130.194286 85.504-56.173714 56.246857-85.430857 130.194286Q128 438.637714 128 512q0 73.216 26.989714 141.312 29.257143 73.947429 85.504 130.194286 56.246857 56.32 130.194286 85.577143 68.022857 26.916571 141.312 26.916571 73.216 0 141.312-26.989714 73.947429-29.257143 130.194286-85.504 56.32-56.246857 85.577143-130.194286 26.916571-68.022857 26.916571-141.312z" p-id="17609"></path><path d="M292.571429 365.714286m73.142857 0l0 0q73.142857 0 73.142857 73.142857l0 146.285714q0 73.142857-73.142857 73.142857l0 0q-73.142857 0-73.142857-73.142857l0-146.285714q0-73.142857 73.142857-73.142857Z" p-id="17610"></path><path d="M585.142857 365.714286m73.142857 0l0 0q73.142857 0 73.142857 73.142857l0 146.285714q0 73.142857-73.142857 73.142857l0 0q-73.142857 0-73.142857-73.142857l0-146.285714q0-73.142857 73.142857-73.142857Z" p-id="17611"></path></svg><rect v-gra="id" width="151.1999969482422" height="151.1999969482422" transform="translate(-6, -6)" style="pointer-events:none;" fill="url(#xtW7EiEMZxUnZkiJ31lXl)"></rect></svg> <defs><filter id="colors8475731144"><feColorMatrix type="matrix" values="0 0 0 0 0  0 0 0 0 0  0 0 0 0 0  0 0 0 1 0" class="icon-fecolormatrix"></feColorMatrix></filter> <filter id="colorsf8768964387"><feColorMatrix type="matrix" values="0 0 0 0 0.99609375  0 0 0 0 0.99609375  0 0 0 0 0.99609375  0 0 0 1 0" class="icon-fecolormatrix"></feColorMatrix></filter> <filter id="colorsb2076330248"><feColorMatrix type="matrix" values="0 0 0 0 0  0 0 0 0 0  0 0 0 0 0  0 0 0 1 0" class="icon-fecolormatrix"></feColorMatrix></filter></defs></g></g><defs v-gra="od"></defs><defs v-gra="id"><filter id="2c88c6c2-9da4-452a-8ece-547e38cb4452" filterUnits="userSpaceOnUse"><feColorMatrix type="matrix" values="0 0 0 0 0.99609375  0 0 0 0 0.99609375  0 0 0 0 0.99609375  0 0 0 1 0"></feColorMatrix></filter><linearGradient x1="0" y1="1" x2="1" y2="0" id="xtW7EiEMZxUnZkiJ31lXl"><stop offset="0%" stop-color="#7acbfe"></stop><stop offset="100%" stop-color="#4078fc"></stop></linearGradient><filter id="42443b3f1de60f6b6fd3b6a9844b4764" filterUnits="objectBoundingBox"><feColorMatrix type="matrix" values="0 0 0 0 0.99609375  0 0 0 0 0.99609375  0 0 0 0 0.99609375  0 0 0 1 0"></feColorMatrix></filter></defs><mask v-gra="im" id="4d6ac6f6-09ef-4e9f-9e24-bff1492a8a5d"><svg filter="url(#2c88c6c2-9da4-452a-8ece-547e38cb4452)" x="0" y="0" width="139.20000000000002" height="139.20000000000002" filtersec="colorsf8768964387" class="image-svg-svg primary" style="overflow: visible;"><svg viewBox="0 0 1024 1024" xmlns="http://www.w3.org/2000/svg" p-id="17608"><path d="M1024 512A512 512 0 1 1 0 512a512 512 0 0 1 1024 0z m-128 0q0-73.216-26.989714-141.385143-29.257143-73.874286-85.504-130.194286-56.246857-56.173714-130.194286-85.430857Q585.289143 128 512 128q-73.216 0-141.385143 26.989714-73.874286 29.257143-130.194286 85.504-56.173714 56.246857-85.430857 130.194286Q128 438.637714 128 512q0 73.216 26.989714 141.312 29.257143 73.947429 85.504 130.194286 56.246857 56.32 130.194286 85.577143 68.022857 26.916571 141.312 26.916571 73.216 0 141.312-26.989714 73.947429-29.257143 130.194286-85.504 56.32-56.246857 85.577143-130.194286 26.916571-68.022857 26.916571-141.312z" p-id="17609"></path><path d="M292.571429 365.714286m73.142857 0l0 0q73.142857 0 73.142857 73.142857l0 146.285714q0 73.142857-73.142857 73.142857l0 0q-73.142857 0-73.142857-73.142857l0-146.285714q0-73.142857 73.142857-73.142857Z" p-id="17610"></path><path d="M585.142857 365.714286m73.142857 0l0 0q73.142857 0 73.142857 73.142857l0 146.285714q0 73.142857-73.142857 73.142857l0 0q-73.142857 0-73.142857-73.142857l0-146.285714q0-73.142857 73.142857-73.142857Z" p-id="17611"></path></svg></svg></mask></svg>