<svg t="1724034653315" class="icon" viewBox="0 0 1024 1024" version="1.1" xmlns="http://www.w3.org/2000/svg" p-id="27712" width="200" height="200"><path d="M221.248 608.704A338.816 338.816 0 0 0 544 840.832a338.816 338.816 0 0 0 322.752-232.128H960a427.968 427.968 0 0 1-371.2 320.128V1024H499.2v-95.168A427.968 427.968 0 0 1 128 608.64h93.248zM548.8 64c148.8 0 269.44 121.6 269.44 271.616v170.112c0 150.016-120.64 271.616-269.44 271.616h-9.6c-148.8 0-269.44-121.6-269.44-271.616V335.616C269.824 185.6 390.4 64 539.264 64h9.6z m0 90.304h-9.6c-99.328 0-179.84 81.152-179.84 181.312v170.112c0 100.096 80.512 181.248 179.84 181.248h9.6c99.328 0 179.84-81.152 179.84-181.248V335.616c0-100.16-80.512-181.312-179.84-181.312z" fill="#333333" p-id="27713"></path></svg>
