<svg t="1722712927606" class="icon" viewBox="0 0 1024 1024" version="1.1" xmlns="http://www.w3.org/2000/svg" p-id="33758" width="200" height="200"><path d="M512 512m-417 0a417 417 0 1 0 834 0 417 417 0 1 0-834 0Z" fill="#FA8810" p-id="33759"></path><path d="M527 542m-390 0a390 390 0 1 0 780 0 390 390 0 1 0-780 0Z" fill="#FEBD2B" p-id="33760"></path><path d="M512 122c216 0 390 174 390 390s-174 390-390 390S122 728 122 512 296 122 512 122m0-90C248 32 32 248 32 512s216 480 480 480 480-216 480-480S776 32 512 32z" fill="#FEE13D" p-id="33761"></path><path d="M752 392l-210 12V482h180v240h-120v-60h60v-120h-120v240h-60v-240h-120v180H302v-240h180v-72L272 422v-60l480-30v60z" fill="#FA8810" p-id="33762"></path><path d="M752 362l-210 12V452h180v240h-120v-60h60v-120h-120v240h-60v-240h-120v180H302v-240h180v-72L272 392v-60l480-30v60z" fill="#FFEEA6" p-id="33763"></path></svg>
