<svg t="1722712833789" class="icon" viewBox="0 0 1024 1024" version="1.1" xmlns="http://www.w3.org/2000/svg" p-id="27045" width="200" height="200"><path d="M62.452 627.613a340.645 145.032 0 1 0 681.29 0 340.645 145.032 0 1 0-681.29 0z" fill="#FFB600" p-id="27046"></path><path d="M62.452 633.29a340.645 145.032 0 1 0 681.29 0 340.645 145.032 0 1 0-681.29 0z" fill="#FFB600" p-id="27047"></path><path d="M62.452 638.968a340.645 145.032 0 1 0 681.29 0 340.645 145.032 0 1 0-681.29 0z" fill="#FF8F3B" p-id="27048"></path><path d="M62.452 622.452a340.645 145.032 0 1 0 681.29 0 340.645 145.032 0 1 0-681.29 0z" fill="#FCDC06" p-id="27049"></path><path d="M104.774 585.806a340.645 145.032 0 1 0 681.29 0 340.645 145.032 0 1 0-681.29 0z" fill="#FFB600" p-id="27050"></path><path d="M104.774 591.484a340.645 145.032 0 1 0 681.29 0 340.645 145.032 0 1 0-681.29 0z" fill="#FFB600" p-id="27051"></path><path d="M104.774 597.161a340.645 145.032 0 1 0 681.29 0 340.645 145.032 0 1 0-681.29 0z" fill="#FF8F3B" p-id="27052"></path><path d="M104.774 580.129a340.645 145.032 0 1 0 681.29 0 340.645 145.032 0 1 0-681.29 0z" fill="#FCDC06" p-id="27053"></path><path d="M71.226 537.806a340.645 145.032 0 1 0 681.29 0 340.645 145.032 0 1 0-681.29 0z" fill="#FFB600" p-id="27054"></path><path d="M71.226 543.484a340.645 145.032 0 1 0 681.29 0 340.645 145.032 0 1 0-681.29 0z" fill="#FFB600" p-id="27055"></path><path d="M71.226 549.161a340.645 145.032 0 1 0 681.29 0 340.645 145.032 0 1 0-681.29 0z" fill="#FF8F3B" p-id="27056"></path><path d="M71.226 532.645a340.645 145.032 0 1 0 681.29 0 340.645 145.032 0 1 0-681.29 0z" fill="#FCDC06" p-id="27057"></path><path d="M65.548 459.355a340.645 145.032 0 1 0 681.29 0 340.645 145.032 0 1 0-681.29 0z" fill="#FFB600" p-id="27058"></path><path d="M65.548 465.032a340.645 145.032 0 1 0 681.29 0 340.645 145.032 0 1 0-681.29 0z" fill="#FFB600" p-id="27059"></path><path d="M65.548 470.71a340.645 145.032 0 1 0 681.29 0 340.645 145.032 0 1 0-681.29 0z" fill="#FFB600" p-id="27060"></path><path d="M65.548 453.677a340.645 145.032 0 1 0 681.29 0 340.645 145.032 0 1 0-681.29 0z" fill="#FCDC06" p-id="27061"></path><path d="M40.258 394.839a340.645 145.032 0 1 0 681.29 0 340.645 145.032 0 1 0-681.29 0z" fill="#FFB600" p-id="27062"></path><path d="M40.258 400.516a340.645 145.032 0 1 0 681.29 0 340.645 145.032 0 1 0-681.29 0z" fill="#FFB600" p-id="27063"></path><path d="M40.258 406.194a340.645 145.032 0 1 0 681.29 0 340.645 145.032 0 1 0-681.29 0z" fill="#FFB600" p-id="27064"></path><path d="M40.258 389.161a340.645 145.032 0 1 0 681.29 0 340.645 145.032 0 1 0-681.29 0z" fill="#FCDC06" p-id="27065"></path><path d="M65.548 459.355a340.645 145.032 0 1 0 681.29 0 340.645 145.032 0 1 0-681.29 0z" fill="#FFB600" p-id="27066"></path><path d="M65.548 465.032a340.645 145.032 0 1 0 681.29 0 340.645 145.032 0 1 0-681.29 0z" fill="#FFB600" p-id="27067"></path><path d="M65.548 470.71a340.645 145.032 0 1 0 681.29 0 340.645 145.032 0 1 0-681.29 0z" fill="#FF8F3B" p-id="27068"></path><path d="M65.548 453.677a340.645 145.032 0 1 0 681.29 0 340.645 145.032 0 1 0-681.29 0z" fill="#FCDC06" p-id="27069"></path><path d="M11.871 406.194a340.645 145.032 0 1 0 681.29 0 340.645 145.032 0 1 0-681.29 0z" fill="#FFB600" p-id="27070"></path><path d="M11.871 411.871a340.645 145.032 0 1 0 681.29 0 340.645 145.032 0 1 0-681.29 0z" fill="#FFB600" p-id="27071"></path><path d="M11.871 417.548a340.645 145.032 0 1 0 681.29 0 340.645 145.032 0 1 0-681.29 0z" fill="#FF8F3B" p-id="27072"></path><path d="M11.871 400.516a340.645 145.032 0 1 0 681.29 0 340.645 145.032 0 1 0-681.29 0z" fill="#FCDC06" p-id="27073"></path><path d="M107.355 322.065a340.645 145.032 0 1 0 681.29 0 340.645 145.032 0 1 0-681.29 0z" fill="#FFB600" p-id="27074"></path><path d="M107.355 327.742a340.645 145.032 0 1 0 681.29 0 340.645 145.032 0 1 0-681.29 0z" fill="#FFB600" p-id="27075"></path><path d="M107.355 332.903a340.645 145.032 0 1 0 681.29 0 340.645 145.032 0 1 0-681.29 0z" fill="#FF8F3B" p-id="27076"></path><path d="M107.355 316.387a340.645 145.032 0 1 0 681.29 0 340.645 145.032 0 1 0-681.29 0z" fill="#FCDC06" p-id="27077"></path><path d="M351.484 267.871l43.355 25.29c13.935 8.258 24.258 13.42 29.42 15.484v0.516c-13.42 4.13-44.388 16.516-91.356 35.613l-7.226 29.42 102.71-43.355-3.613 51.096 26.323 4.646 1.548-61.936 35.613 3.097 2.58 66.58 33.033 6.194-6.71-70.193L582.71 336 576 304l-61.42-3.097-4.645-48.516-24.774 1.548 2.065 46.452-34.065-1.548 1.033-44.387-20.646 0.516-2.58 36.129-74.839-42.323-4.645 19.097z m0 0" fill="#FF8F3B" p-id="27078"></path><path d="M395.355 587.355a284.903 284.903 0 1 0 569.806 0 284.903 284.903 0 1 0-569.806 0z" fill="#FCDC06" p-id="27079"></path><path d="M748.387 436.129l-44.903 82.58c-12.387 22.71-18.58 38.71-21.678 43.872h-0.516c-8.258-15.484-30.967-56.775-68.129-123.871h-42.838l80 134.193h-67.097v30.968h82.58V640h-82.58v36.129h82.58v61.936h30.968v-61.936h77.42V640h-77.42v-36.129h77.42v-30.968h-64l81.032-134.193h-42.839v-2.581z m2.065 0" fill="#FE881F" p-id="27080"></path><path d="M922.839 172.387l-27.355 27.871c-7.226 7.742-11.871 12.903-13.936 15.484h-0.516c-1.032-8.258-5.161-27.871-11.87-58.839l-17.033-4.645 15.484 62.968L841.806 208l-3.612 11.871 29.935 8.774-4.645 16.516-29.936-8.774-3.613 11.871 29.936 8.774-6.71 23.742 14.968 4.13 6.71-23.743 28.903 8.258 3.613-11.87-28.903-8.259 4.645-16.516L912 241.032l3.613-11.87-24.774-7.227 47.484-44.903-15.484-4.645z m0 0" fill="#FF8F3B" p-id="27081"></path><path d="M987.355 349.42l-2.58 21.16c-0.517 5.678-1.033 9.291-1.033 11.355-3.097-3.096-11.355-10.322-24.774-21.16l-8.774 3.612 27.87 21.678-13.419 5.677 2.58 6.193 16-6.193 3.614 8.774-16 6.194 2.58 6.193 16-6.193 5.162 12.387 7.742-3.097-5.162-12.387 15.484-6.194-2.58-6.193-15.484 6.193-3.613-8.774 15.484-6.193-2.581-6.194-12.903 5.161 5.161-35.096-8.774 3.096z m0 0" fill="#FCDC06" p-id="27082"></path></svg>
