<svg data-v-0dd9719b="" version="1.0" xmlns="http://www.w3.org/2000/svg" xmlns:xlink="http://www.w3.org/1999/xlink" width="100%" height="100%" viewBox="0 0 340.000000 250.000000" preserveAspectRatio="xMidYMid meet" color-interpolation-filters="sRGB" style="margin: auto;"> <rect data-v-0dd9719b="" x="0" y="0" width="100%" height="100%" fill="#FFFFFF" fill-opacity="0" class="background"></rect> <!----> <g data-v-0dd9719b="" fill="#000000" class="mojosvg mojo-g" transform="translate(4.218590259552002,48.90618896484375)"><g><g class="tp-name"><g transform="translate(0, 0)"><g data-gra="path-name" fill="#000000" transform="translate(0,3)"><g transform="scale(1.4999999999999993)"><path d="M13.17-72.91L10.05-72.91L10.05-66.66L13.17-66.66L19.45-66.66L19.45 9.83L19.45 12.95L22.58 12.95L44.92 12.95L48.05 12.95L48.05 6.70L44.92 6.70L25.70 6.70L25.70-66.66L44.92-66.66L48.05-66.66L48.05-72.91L44.92-72.91Z" transform="translate(-10.049629211425781, 78.45420837402344)"></path></g></g></g><g transform="translate(58.99400901794431, 0)"><g data-gra="path-name" fill="#000000" transform="translate(0,3)"><g transform="scale(1.4999999999999993)"><path d="M13.83 13.55L13.83 16.67L20.08 16.67L20.08 13.55L20.08 3.54L39.92 3.54L39.92 13.55L39.92 16.67L46.17 16.67L46.17 13.55L46.17-50.09L46.17-53.22L43.04-53.22L16.96-53.22L13.83-53.22L13.83-50.09ZM20.08-2.71L20.08-46.97L39.92-46.97L39.92-2.71Z" transform="translate(-13.831520080566406, 78.45420837402344)"></path></g></g></g><g transform="translate(109.49936294555658, 0)"><g data-gra="path-name" fill="#000000" transform="translate(0,3)"><g transform="scale(1.4999999999999993)"><path d="M22.71-14.62L22.71 15.87L22.71 19.00L28.96 19.00L28.96 15.87L28.96-22.28L48.42-46.12L43.58-50.07L28.96-32.16L28.96-48.09L28.96-51.22L22.71-51.22L22.71-48.09L22.71-24.50L11.58-10.86L16.42-6.91Z" transform="translate(-11.579036712646484, 78.45420837402344)"></path></g></g></g><g transform="translate(166.7623100280761, 0)"><g data-gra="path-name" fill="#000000" transform="translate(0,3)"><g transform="scale(1.4999999999999993)"><path d="M27.98-45.54L43.17-45.54L46.30-45.54L46.30-51.79L43.17-51.79L27.98-51.79L27.98-75.33L27.98-78.45L21.73-78.45L21.73-75.33L21.73-51.79L13.90-51.79L10.78-51.79L10.78-45.54L13.90-45.54L21.73-45.54L21.73 11.88L26.89 14.25L45.20-1.41L41.14-6.16C41.14-6.16 33.40 0.46 27.98 5.10Z" transform="translate(-10.777473449707031, 78.45420837402344)"></path></g></g></g><g transform="translate(222.03970718383778, 0)"><g data-gra="path-name" fill="#000000" transform="translate(0,3)"><g transform="scale(1.4999999999999993)"><path d="M46.92 15.18L50.05 15.18L50.05 8.93L46.92 8.93L19.28 8.93L19.28-46.75L36.91-46.75L36.91-15.51L24.93-15.51L23.37-15.51L23.37-9.26L24.93-9.26L40.03-9.26L43.16-9.26L43.16-12.39L43.16-49.88L43.16-53.00L40.03-53.00L16.15-53.00L13.03-53.00L13.03-49.88L13.03 12.06L13.03 15.18L16.15 15.18Z" transform="translate(-13.028812408447266, 78.45420837402344)"></path></g></g></g><g transform="translate(279.5685863494872, 0)"><g data-gra="path-name" fill="#000000" transform="translate(0,3)"><g transform="scale(1.4999999999999993)"><path d="M30.00-10.32L41.76 12.86L47.33 10.03L33.50-17.23L47.33-44.50L41.76-47.32L30.00-24.14L18.24-47.32L12.67-44.50L26.50-17.23L12.67 10.03L18.24 12.86Z" transform="translate(-12.667560577392578, 78.45420837402344)"></path></g></g></g></g></g></g><defs v-gra="od"></defs></svg>
