<svg data-v-0dd9719b="" version="1.0" xmlns="http://www.w3.org/2000/svg" xmlns:xlink="http://www.w3.org/1999/xlink" width="100%" height="100%" viewBox="0 0 169.1999969482422 142.3571319580078" preserveAspectRatio="xMidYMid meet" color-interpolation-filters="sRGB" style="margin: auto;"> <rect data-v-0dd9719b="" x="0" y="0" width="100%" height="100%" fill="#ffffff" fill-opacity="1" class="background" style="display: none;"></rect> <!----> <g data-v-0dd9719b="" class="imagesvg isNoFont"><g mask="url(#066e2285-8b6f-4658-810b-586f7b3d59a5)"><rect fill="#333" fill-opacity="0" stroke-width="2" x="0" y="0" width="169.20000000000005" height="142.35713804940434" class="image-rect"></rect> <svg x="0" y="0" width="169.20000000000005" height="142.35713804940434" filtersec="colorsb5483890164" class="image-svg-svg primary" style="overflow: visible;"><svg viewBox="156.920654296875 213.2523193359375 710.158935546875 597.495361328125" xmlns="http://www.w3.org/2000/svg" p-id="23377" data-spm-anchor-id="a313x.search_index.0.i0.281a3a81YvfJ2r"><g d-rs="4" transform="matrix(-1,0,0,1,1024.0001,0)"><path d="M672.757869 550.62896H195.293694c-21.181973 0-38.373139-17.191166-38.373138-38.373139s17.191166-38.373139 38.373138-38.373139h477.464175c21.181973 0 38.373139 17.191166 38.373139 38.373139 0 21.079644-17.191166 38.373139-38.373139 38.373139zM828.706306 289.998601h-633.412612c-21.181973 0-38.373139-17.191166-38.373138-38.373139s17.191166-38.373139 38.373138-38.373139h633.412612c21.181973 0 38.373139 17.191166 38.373138 38.373139s-17.191166 38.373139-38.373138 38.373139zM512 810.747677H195.293694c-21.181973 0-38.373139-17.191166-38.373138-38.373139s17.191166-38.373139 38.373138-38.373139h316.706306c21.181973 0 38.373139 17.191166 38.373139 38.373139 0 21.284301-17.191166 38.373139-38.373139 38.373139z" fill="#272636" p-id="23378" data-spm-anchor-id="a313x.search_index.0.i1.281a3a81YvfJ2r"></path></g></svg><rect v-gra="id" width="181.19996643066406" height="154.3571319580078" transform="translate(-6, -6)" style="pointer-events:none;" fill="url(#p4BjxAfutqYHLJtQ71jAc)"></rect></svg> <!----></g></g><defs v-gra="od"></defs><defs v-gra="id"><filter id="c864f37f-d024-4f3c-a771-aec3d64df91a" filterUnits="userSpaceOnUse"><feColorMatrix type="matrix" values="0 0 0 0 0.99609375  0 0 0 0 0.99609375  0 0 0 0 0.99609375  0 0 0 1 0"></feColorMatrix></filter><linearGradient x1="0" y1="1" x2="0" y2="0" id="p4BjxAfutqYHLJtQ71jAc"><stop offset="0%" stop-color="#7acbfe"></stop><stop offset="100%" stop-color="#4078fc"></stop></linearGradient><filter id="42443b3f1de60f6b6fd3b6a9844b4764" filterUnits="objectBoundingBox"><feColorMatrix type="matrix" values="0 0 0 0 0.99609375  0 0 0 0 0.99609375  0 0 0 0 0.99609375  0 0 0 1 0"></feColorMatrix></filter></defs><mask v-gra="im" id="066e2285-8b6f-4658-810b-586f7b3d59a5"><svg x="0" y="0" width="169.20000000000005" height="142.35713804940434" filtersec="colorsb5483890164" class="image-svg-svg primary" style="overflow: visible;" filter="url(#c864f37f-d024-4f3c-a771-aec3d64df91a)"><svg viewBox="156.920654296875 213.2523193359375 710.158935546875 597.495361328125" xmlns="http://www.w3.org/2000/svg" p-id="23377" data-spm-anchor-id="a313x.search_index.0.i0.281a3a81YvfJ2r"><g d-rs="4" transform="matrix(-1,0,0,1,1024.0001,0)"><path d="M672.757869 550.62896H195.293694c-21.181973 0-38.373139-17.191166-38.373138-38.373139s17.191166-38.373139 38.373138-38.373139h477.464175c21.181973 0 38.373139 17.191166 38.373139 38.373139 0 21.079644-17.191166 38.373139-38.373139 38.373139zM828.706306 289.998601h-633.412612c-21.181973 0-38.373139-17.191166-38.373138-38.373139s17.191166-38.373139 38.373138-38.373139h633.412612c21.181973 0 38.373139 17.191166 38.373138 38.373139s-17.191166 38.373139-38.373138 38.373139zM512 810.747677H195.293694c-21.181973 0-38.373139-17.191166-38.373138-38.373139s17.191166-38.373139 38.373138-38.373139h316.706306c21.181973 0 38.373139 17.191166 38.373139 38.373139 0 21.284301-17.191166 38.373139-38.373139 38.373139z" fill="#272636" p-id="23378" data-spm-anchor-id="a313x.search_index.0.i1.281a3a81YvfJ2r"></path></g></svg></svg></mask></svg>