<svg t="1724032343532" class="icon" viewBox="0 0 1024 1024" version="1.1" xmlns="http://www.w3.org/2000/svg" p-id="23176" width="200" height="200"><path d="M955.149805 468.702714c-13.032449 0.186178-25.599453-4.933713-34.815256-14.19606-9.262348-9.262348 10.379415-22.480974 10.565592-35.606513V139.63338c0-6.097324-30.858977-27.55432-30.858977-33.698189a46.777182 46.777182 0 0 0-30.626254-12.287737H140.80793a46.311738 46.311738 0 0 0-30.858977 12.101559C103.805084 105.749013 93.099859 127.345643 93.099859 139.63338v744.711363c0 12.334282 22.062074 46.54446 46.54446 46.54446h232.722301c30.626255 0 56.179163-0.744711 56.179163 30.067722C426.777093 987.347633 398.617695 1022.209434 372.36662 1023.978124H139.644319c-73.307525 0-139.63338-69.211612-139.633381-136.933802V124.366798A121.946486 121.946486 0 0 1 36.641428 38.026824C61.123814 13.451349 104.037807-5.026802 140.761386 1.210156h716.272697c37.840646 0 74.564225 13.032449 104.073413 36.816668C985.636427 56.504975 1017.752104 108.867492 1023.989062 139.63338v279.266761c-1.768689 26.390709-42.541637 48.033883-68.839257 49.802573zM512 698.166902h186.177841v-186.17784c1.908323-28.019765 20.898463-42.960537 48.778594-44.822315 25.925264 0 39.935147 14.335694 44.310326 44.822315v186.17784h186.177841c27.880132 1.861778 44.682682 19.362495 46.54446 47.382261-1.861778 28.019765-18.664329 43.798337-46.54446 45.70666h-186.177841v186.17784c-1.861778 28.019765-16.430194 44.636137-44.310326 46.544461-26.064898 0-44.449959-16.057839-48.778594-46.544461v-186.17784h-186.177841c-17.314539 0-16.150928-2.141045-24.808197-10.844859a88.341385 88.341385 0 0 1-17.314539-34.861801c0-17.361084 8.65727-26.064898 17.314539-34.815256 10.100148-8.331458 12.10156-9.448525 24.808197-12.567005z" fill="#666666" p-id="23177"></path></svg>
