<svg data-v-0dd9719b="" version="1.0" xmlns="http://www.w3.org/2000/svg" xmlns:xlink="http://www.w3.org/1999/xlink" width="100%" height="100%" viewBox="0 0 134.9010467529297 134.8834991455078" preserveAspectRatio="xMidYMid meet" color-interpolation-filters="sRGB" style="margin: auto;"> <rect data-v-0dd9719b="" x="0" y="0" width="100%" height="100%" fill="#ffffff" fill-opacity="1" class="background" style="display: none;"></rect> <!----> <g data-v-0dd9719b="" class="imagesvg isNoFont"><g mask="url(#834e41b1-750d-4b80-8fad-bf5da64a2603)"><rect fill="#101111" fill-opacity="0" stroke-width="2" x="0" y="0" width="134.90104164054412" height="134.8835067846621" class="image-rect"></rect> <svg x="0" y="0" width="134.90104164054412" height="134.8835067846621" filtersec="colorsf9243315558" class="image-svg-svg primary" style="overflow: visible;"><svg xmlns="http://www.w3.org/2000/svg" viewBox="1.2519999742507935 1.2519999742507935 97.50300598144531 97.49002075195312"><path fill="#333333" d="M25.898 92.38a2.869 2.869 0 0 1-.607-4.52l62.576-62.576a2.869 2.869 0 0 1 4.52.607c4.153 7.287 6.368 15.54 6.368 24.102 0 26.924-21.824 48.749-48.748 48.749-8.577.006-16.83-2.208-24.109-6.362zM50 93.015c23.757 0 43.015-19.258 43.015-43.015a42.85 42.85 0 0 0-3.878-17.878L32.122 89.137A42.85 42.85 0 0 0 50 93.015zM7.62 74.102C3.466 66.815 1.252 58.562 1.252 50 1.252 23.076 23.076 1.252 50 1.252c8.57 0 16.822 2.214 24.102 6.368a2.869 2.869 0 0 1 .607 4.52l-62.57 62.576c-1.338 1.332-3.587 1.035-4.519-.614zm60.258-63.239A42.85 42.85 0 0 0 50 6.985C26.243 6.985 6.985 26.243 6.985 50a42.85 42.85 0 0 0 3.878 17.878l57.015-57.015z"></path></svg><rect v-gra="id" width="146.9010467529297" height="146.88307189941406" transform="translate(-6, -6)" style="pointer-events:none;" fill="url(#l4wBkp-q8ebEcRKPwsuJ3)"></rect></svg> <defs><filter id="colors4688145682"><feColorMatrix type="matrix" values="0 0 0 0 0.0625  0 0 0 0 0.06640625  0 0 0 0 0.06640625  0 0 0 1 0" class="icon-fecolormatrix"></feColorMatrix></filter> <filter id="colorsf9243315558"><feColorMatrix type="matrix" values="0 0 0 0 0.99609375  0 0 0 0 0.99609375  0 0 0 0 0.99609375  0 0 0 1 0" class="icon-fecolormatrix"></feColorMatrix></filter> <filter id="colorsb2668673773"><feColorMatrix type="matrix" values="0 0 0 0 0  0 0 0 0 0  0 0 0 0 0  0 0 0 1 0" class="icon-fecolormatrix"></feColorMatrix></filter></defs></g></g><defs v-gra="od"></defs><defs v-gra="id"><filter id="51147cbd-6add-4ed3-8fdd-278713a8d959" filterUnits="userSpaceOnUse"><feColorMatrix type="matrix" values="0 0 0 0 0.99609375  0 0 0 0 0.99609375  0 0 0 0 0.99609375  0 0 0 1 0"></feColorMatrix></filter><linearGradient x1="0" y1="1" x2="0" y2="0" id="l4wBkp-q8ebEcRKPwsuJ3"><stop offset="0%" stop-color="#7acbfe"></stop><stop offset="100%" stop-color="#4078fc"></stop></linearGradient><filter id="42443b3f1de60f6b6fd3b6a9844b4764" filterUnits="objectBoundingBox"><feColorMatrix type="matrix" values="0 0 0 0 0.99609375  0 0 0 0 0.99609375  0 0 0 0 0.99609375  0 0 0 1 0"></feColorMatrix></filter></defs><mask v-gra="im" id="834e41b1-750d-4b80-8fad-bf5da64a2603"><svg filter="url(#51147cbd-6add-4ed3-8fdd-278713a8d959)" x="0" y="0" width="134.90104164054412" height="134.8835067846621" filtersec="colorsf9243315558" class="image-svg-svg primary" style="overflow: visible;"><svg xmlns="http://www.w3.org/2000/svg" viewBox="1.2519999742507935 1.2519999742507935 97.50300598144531 97.49002075195312"><path fill="#333333" d="M25.898 92.38a2.869 2.869 0 0 1-.607-4.52l62.576-62.576a2.869 2.869 0 0 1 4.52.607c4.153 7.287 6.368 15.54 6.368 24.102 0 26.924-21.824 48.749-48.748 48.749-8.577.006-16.83-2.208-24.109-6.362zM50 93.015c23.757 0 43.015-19.258 43.015-43.015a42.85 42.85 0 0 0-3.878-17.878L32.122 89.137A42.85 42.85 0 0 0 50 93.015zM7.62 74.102C3.466 66.815 1.252 58.562 1.252 50 1.252 23.076 23.076 1.252 50 1.252c8.57 0 16.822 2.214 24.102 6.368a2.869 2.869 0 0 1 .607 4.52l-62.57 62.576c-1.338 1.332-3.587 1.035-4.519-.614zm60.258-63.239A42.85 42.85 0 0 0 50 6.985C26.243 6.985 6.985 26.243 6.985 50a42.85 42.85 0 0 0 3.878 17.878l57.015-57.015z"></path></svg></svg></mask></svg>