<svg xmlns="http://www.w3.org/2000/svg" viewBox="0.017490588128566742 -0.0024491145741194487 178.00918579101562 161.072509765625">
  <defs>
    <linearGradient id="fd3249d2-7c7e-40eb-8395-631614cdeee7" x1="160.92" y1="3.62" x2="26.83" y2="193.59" gradientUnits="userSpaceOnUse">
      <stop offset="0" stop-color="#4078FC"></stop>
      <stop offset="1" stop-color="#7ACBFE"></stop>
    </linearGradient>
  </defs>
  <g>
    <path d="M178 72.36s.06 83.3 0 84.56h-47.07v-6.73C161.87 129 173.32 92.16 178 72.36zm0-61.63V7h-44.81c0 27.94-6.27 80.48-34.1 99.71a32.12 32.12 0 0 1-12.6 5.75 34 34 0 0 1-6.88.73c-17.49 0-31.72-14.7-31.72-32.76 0-18.56 13.41-32.55 31.2-32.55a40.24 40.24 0 0 1 7.68.77c4.46.88 17.7 4.28 28 19.68 4.61-10.82 9.24-31.8 9.24-52C118.67 8.34 98.19 0 79.09 0a77.77 77.77 0 0 0-56.94 24.14A81.87 81.87 0 0 0 23 137a78.43 78.43 0 0 0 56.63 24.07c58.06.02 95.58-62 98.37-150.34z" fill="url(#fd3249d2-7c7e-40eb-8395-631614cdeee7)"></path>
  </g>
</svg>
